<svg data-v-423bf9ae="" xmlns="http://www.w3.org/2000/svg" viewBox="0 0 611.5947760833508 60"
     class="font"><!----><!----><!---->
    <g data-v-423bf9ae="" id="2ede2b60-7eb1-43ef-b13a-479b1222b03c" fill="#2C2C2C"
       transform="matrix(5.628517904206723,0,0,5.628517904206723,-7.37336524989496,-32.02626767383979)">
        <path d="M1.31 16.19L1.31 5.69L9.20 5.69L9.20 5.69Q10.18 5.69 10.85 5.77L10.85 5.77L10.85 5.77Q11.53 5.86 11.96 6.03L11.96 6.03L11.96 6.03Q12.40 6.20 12.64 6.45L12.64 6.45L12.64 6.45Q12.87 6.71 12.98 7.05L12.98 7.05L12.98 7.05Q13.09 7.39 13.11 7.81L13.11 7.81L13.11 7.81Q13.13 8.24 13.13 8.75L13.13 8.75L13.13 8.75Q13.13 9.28 13.10 9.73L13.10 9.73L13.10 9.73Q13.08 10.19 12.94 10.55L12.94 10.55L12.94 10.55Q12.81 10.92 12.52 11.19L12.52 11.19L12.52 11.19Q12.23 11.47 11.69 11.66L11.69 11.66L11.69 11.66Q11.16 11.84 10.33 11.94L10.33 11.94L10.33 11.94Q9.51 12.03 8.31 12.03L8.31 12.03L2.63 12.03L2.63 16.19L1.31 16.19ZM2.63 6.78L2.63 10.94L8.31 10.94L8.31 10.94Q9.18 10.94 9.78 10.91L9.78 10.91L9.78 10.91Q10.38 10.88 10.77 10.79L10.77 10.79L10.77 10.79Q11.16 10.71 11.37 10.56L11.37 10.56L11.37 10.56Q11.58 10.41 11.68 10.17L11.68 10.17L11.68 10.17Q11.78 9.92 11.80 9.57L11.80 9.57L11.80 9.57Q11.81 9.23 11.81 8.75L11.81 8.75L11.81 8.75Q11.81 8.31 11.80 7.98L11.80 7.98L11.80 7.98Q11.78 7.66 11.68 7.44L11.68 7.44L11.68 7.44Q11.58 7.23 11.37 7.10L11.37 7.10L11.37 7.10Q11.16 6.97 10.77 6.89L10.77 6.89L10.77 6.89Q10.38 6.82 9.78 6.80L9.78 6.80L9.78 6.80Q9.18 6.78 8.31 6.78L8.31 6.78L2.63 6.78ZM13.78 12.20L13.78 12.20L13.78 12.20Q13.78 10.99 14.04 10.19L14.04 10.19L14.04 10.19Q14.30 9.40 14.88 8.93L14.88 8.93L14.88 8.93Q15.45 8.47 16.37 8.28L16.37 8.28L16.37 8.28Q17.28 8.09 18.59 8.09L18.59 8.09L18.59 8.09Q19.91 8.09 20.82 8.28L20.82 8.28L20.82 8.28Q21.74 8.47 22.31 8.93L22.31 8.93L22.31 8.93Q22.89 9.40 23.15 10.19L23.15 10.19L23.15 10.19Q23.41 10.99 23.41 12.20L23.41 12.20L23.41 12.20Q23.41 13.41 23.15 14.21L23.15 14.21L23.15 14.21Q22.89 15.00 22.31 15.48L22.31 15.48L22.31 15.48Q21.74 15.95 20.82 16.14L20.82 16.14L20.82 16.14Q19.91 16.34 18.59 16.34L18.59 16.34L18.59 16.34Q17.28 16.34 16.37 16.14L16.37 16.14L16.37 16.14Q15.45 15.95 14.88 15.48L14.88 15.48L14.88 15.48Q14.30 15.00 14.04 14.21L14.04 14.21L14.04 14.21Q13.78 13.41 13.78 12.20ZM15.09 12.20L15.09 12.20L15.09 12.20Q15.09 12.85 15.14 13.34L15.14 13.34L15.14 13.34Q15.19 13.82 15.32 14.17L15.32 14.17L15.32 14.17Q15.46 14.52 15.70 14.74L15.70 14.74L15.70 14.74Q15.93 14.96 16.32 15.09L16.32 15.09L16.32 15.09Q16.71 15.22 17.27 15.26L17.27 15.26L17.27 15.26Q17.83 15.31 18.59 15.31L18.59 15.31L18.59 15.31Q19.25 15.31 19.77 15.28L19.77 15.28L19.77 15.28Q20.28 15.25 20.67 15.14L20.67 15.14L20.67 15.14Q21.05 15.03 21.33 14.83L21.33 14.83L21.33 14.83Q21.60 14.63 21.77 14.28L21.77 14.28L21.77 14.28Q21.94 13.93 22.02 13.42L22.02 13.42L22.02 13.42Q22.09 12.91 22.09 12.20L22.09 12.20L22.09 12.20Q22.09 11.49 22.02 11.00L22.02 11.00L22.02 11.00Q21.94 10.50 21.77 10.17L21.77 10.17L21.77 10.17Q21.60 9.83 21.33 9.64L21.33 9.64L21.33 9.64Q21.05 9.44 20.67 9.34L20.67 9.34L20.67 9.34Q20.28 9.24 19.77 9.21L19.77 9.21L19.77 9.21Q19.25 9.19 18.59 9.19L18.59 9.19L18.59 9.19Q17.94 9.19 17.42 9.21L17.42 9.21L17.42 9.21Q16.91 9.24 16.52 9.34L16.52 9.34L16.52 9.34Q16.13 9.44 15.86 9.64L15.86 9.64L15.86 9.64Q15.59 9.83 15.42 10.17L15.42 10.17L15.42 10.17Q15.25 10.50 15.17 11.00L15.17 11.00L15.17 11.00Q15.09 11.49 15.09 12.20ZM25.38 16.19L25.38 5.69L26.69 5.69L26.69 16.19L25.38 16.19ZM36.72 16.19L36.72 15.11L36.72 15.11Q36.70 15.19 36.41 15.52L36.41 15.52L36.41 15.52Q36.20 15.76 35.86 15.95L35.86 15.95L35.86 15.95Q35.52 16.14 34.95 16.25L34.95 16.25L34.95 16.25Q34.38 16.35 33.45 16.35L33.45 16.35L33.45 16.35Q32.21 16.35 31.34 16.23L31.34 16.23L31.34 16.23Q30.46 16.10 29.91 15.84L29.91 15.84L29.91 15.84Q29.35 15.57 29.10 15.16L29.10 15.16L29.10 15.16Q28.84 14.75 28.84 14.18L28.84 14.18L28.84 14.18Q28.84 13.59 28.98 13.18L28.98 13.18L28.98 13.18Q29.12 12.76 29.39 12.48L29.39 12.48L29.39 12.48Q29.66 12.20 30.04 12.04L30.04 12.04L30.04 12.04Q30.43 11.89 30.92 11.81L30.92 11.81L30.92 11.81Q31.40 11.72 31.99 11.70L31.99 11.70L31.99 11.70Q32.57 11.68 33.22 11.68L33.22 11.68L33.22 11.68Q34.16 11.68 34.79 11.76L34.79 11.76L34.79 11.76Q35.42 11.84 35.82 11.96L35.82 11.96L35.82 11.96Q36.22 12.08 36.42 12.22L36.42 12.22L36.42 12.22Q36.63 12.35 36.72 12.47L36.72 12.47L36.72 12.47Q36.72 11.70 36.65 11.16L36.65 11.16L36.65 11.16Q36.59 10.62 36.44 10.26L36.44 10.26L36.44 10.26Q36.29 9.90 36.06 9.68L36.06 9.68L36.06 9.68Q35.83 9.47 35.49 9.36L35.49 9.36L35.49 9.36Q35.15 9.25 34.70 9.22L34.70 9.22L34.70 9.22Q34.25 9.19 33.67 9.19L33.67 9.19L33.67 9.19Q32.76 9.19 32.17 9.23L32.17 9.23L32.17 9.23Q31.58 9.28 31.23 9.41L31.23 9.41L31.23 9.41Q30.88 9.54 30.73 9.77L30.73 9.77L30.73 9.77Q30.59 9.99 30.59 10.36L30.59 10.36L29.28 10.36L29.28 10.36Q29.28 9.74 29.50 9.31L29.50 9.31L29.50 9.31Q29.72 8.88 30.24 8.61L30.24 8.61L30.24 8.61Q30.75 8.34 31.60 8.22L31.60 8.22L31.60 8.22Q32.44 8.09 33.67 8.09L33.67 8.09L33.67 8.09Q34.87 8.09 35.70 8.29L35.70 8.29L35.70 8.29Q36.54 8.49 37.05 8.99L37.05 8.99L37.05 8.99Q37.57 9.49 37.80 10.33L37.80 10.33L37.80 10.33Q38.03 11.18 38.03 12.47L38.03 12.47L38.03 16.19L36.72 16.19ZM33.67 15.31L33.67 15.31L33.67 15.31Q34.54 15.31 35.12 15.23L35.12 15.23L35.12 15.23Q35.70 15.15 36.06 14.98L36.06 14.98L36.06 14.98Q36.42 14.82 36.57 14.57L36.57 14.57L36.57 14.57Q36.72 14.33 36.72 14L36.72 14L36.72 14Q36.72 13.67 36.54 13.44L36.54 13.44L36.54 13.44Q36.37 13.21 35.96 13.07L35.96 13.07L35.96 13.07Q35.55 12.93 34.88 12.86L34.88 12.86L34.88 12.86Q34.21 12.80 33.23 12.80L33.23 12.80L33.23 12.80Q32.25 12.80 31.64 12.83L31.64 12.83L31.64 12.83Q31.04 12.87 30.71 12.99L30.71 12.99L30.71 12.99Q30.38 13.11 30.27 13.35L30.27 13.35L30.27 13.35Q30.15 13.59 30.15 14L30.15 14L30.15 14Q30.15 14.41 30.27 14.67L30.27 14.67L30.27 14.67Q30.39 14.92 30.76 15.07L30.76 15.07L30.76 15.07Q31.13 15.21 31.82 15.26L31.82 15.26L31.82 15.26Q32.52 15.31 33.67 15.31ZM46.34 12.69L47.43 12.69L47.43 12.69Q47.43 13.69 47.27 14.37L47.27 14.37L47.27 14.37Q47.11 15.04 46.72 15.44L46.72 15.44L46.72 15.44Q46.33 15.85 45.71 16.02L45.71 16.02L45.71 16.02Q45.08 16.19 44.15 16.19L44.15 16.19L44.15 16.19Q43.26 16.19 42.65 16.05L42.65 16.05L42.65 16.05Q42.04 15.91 41.67 15.59L41.67 15.59L41.67 15.59Q41.29 15.26 41.13 14.71L41.13 14.71L41.13 14.71Q40.96 14.16 40.96 13.34L40.96 13.34L40.96 9.39L39.34 9.39L39.34 8.31L40.96 8.31L40.96 6.16L42.27 6.16L42.27 8.31L47.22 8.31L47.22 9.39L42.27 9.39L42.27 13.34L42.27 13.34Q42.27 14 42.37 14.36L42.37 14.36L42.37 14.36Q42.47 14.71 42.69 14.88L42.69 14.88L42.69 14.88Q42.91 15.04 43.27 15.07L43.27 15.07L43.27 15.07Q43.63 15.09 44.15 15.09L44.15 15.09L44.15 15.09Q44.56 15.09 44.88 15.08L44.88 15.08L44.88 15.08Q45.21 15.07 45.45 14.99L45.45 14.99L45.45 14.99Q45.69 14.92 45.86 14.78L45.86 14.78L45.86 14.78Q46.03 14.63 46.14 14.36L46.14 14.36L46.14 14.36Q46.25 14.10 46.29 13.69L46.29 13.69L46.29 13.69Q46.34 13.28 46.34 12.69L46.34 12.69ZM64.72 14.22L64.72 16.19L63.40 16.19L63.40 14.22L63.40 14.22Q63.40 13.74 63.39 13.40L63.39 13.40L63.39 13.40Q63.37 13.05 63.27 12.80L63.27 12.80L63.27 12.80Q63.17 12.56 62.96 12.41L62.96 12.41L62.96 12.41Q62.75 12.26 62.36 12.17L62.36 12.17L62.36 12.17Q61.97 12.09 61.37 12.06L61.37 12.06L61.37 12.06Q60.77 12.03 59.90 12.03L59.90 12.03L54.00 12.03L54.00 16.19L52.68 16.19L52.68 5.69L60.12 5.69L60.12 5.69Q61.32 5.69 62.14 5.77L62.14 5.77L62.14 5.77Q62.97 5.86 63.50 6.03L63.50 6.03L63.50 6.03Q64.04 6.20 64.33 6.45L64.33 6.45L64.33 6.45Q64.62 6.71 64.75 7.05L64.75 7.05L64.75 7.05Q64.89 7.39 64.91 7.81L64.91 7.81L64.91 7.81Q64.93 8.24 64.93 8.75L64.93 8.75L64.93 8.75Q64.93 9.41 64.84 9.90L64.84 9.90L64.84 9.90Q64.75 10.40 64.53 10.75L64.53 10.75L64.53 10.75Q64.31 11.09 63.95 11.30L63.95 11.30L63.95 11.30Q63.59 11.51 63.04 11.59L63.04 11.59L63.04 11.59Q63.59 11.68 63.92 11.88L63.92 11.88L63.92 11.88Q64.24 12.09 64.42 12.41L64.42 12.41L64.42 12.41Q64.60 12.74 64.66 13.19L64.66 13.19L64.66 13.19Q64.72 13.64 64.72 14.22L64.72 14.22ZM54.00 6.78L54.00 10.94L60.12 10.94L60.12 10.94Q60.99 10.94 61.59 10.91L61.59 10.91L61.59 10.91Q62.19 10.88 62.58 10.79L62.58 10.79L62.58 10.79Q62.97 10.71 63.18 10.56L63.18 10.56L63.18 10.56Q63.39 10.41 63.49 10.17L63.49 10.17L63.49 10.17Q63.59 9.92 63.60 9.57L63.60 9.57L63.60 9.57Q63.62 9.23 63.62 8.75L63.62 8.75L63.62 8.75Q63.62 8.31 63.60 7.98L63.60 7.98L63.60 7.98Q63.59 7.66 63.49 7.44L63.49 7.44L63.49 7.44Q63.39 7.23 63.18 7.10L63.18 7.10L63.18 7.10Q62.97 6.97 62.58 6.89L62.58 6.89L62.58 6.89Q62.19 6.82 61.59 6.80L61.59 6.80L61.59 6.80Q60.99 6.78 60.12 6.78L60.12 6.78L54.00 6.78ZM71.28 16.34L71.28 16.34L71.28 16.34Q69.97 16.34 69.05 16.16L69.05 16.16L69.05 16.16Q68.13 15.98 67.56 15.53L67.56 15.53L67.56 15.53Q66.99 15.09 66.73 14.34L66.73 14.34L66.73 14.34Q66.47 13.60 66.47 12.47L66.47 12.47L66.47 12.47Q66.47 11.18 66.73 10.33L66.73 10.33L66.73 10.33Q66.99 9.49 67.56 8.99L67.56 8.99L67.56 8.99Q68.13 8.49 69.05 8.29L69.05 8.29L69.05 8.29Q69.97 8.09 71.28 8.09L71.28 8.09L71.28 8.09Q72.21 8.09 72.90 8.23L72.90 8.23L72.90 8.23Q73.59 8.37 74.08 8.63L74.08 8.63L74.08 8.63Q74.57 8.89 74.87 9.26L74.87 9.26L74.87 9.26Q75.17 9.63 75.35 10.03L75.35 10.03L75.35 10.03Q75.52 10.44 75.59 10.99L75.59 10.99L75.59 10.99Q75.65 11.53 75.65 12.14L75.65 12.14L75.54 12.58L67.78 12.58L67.78 12.58Q67.78 13.48 67.96 14.06L67.96 14.06L67.96 14.06Q68.13 14.64 68.54 14.90L68.54 14.90L68.54 14.90Q68.95 15.17 69.62 15.24L69.62 15.24L69.62 15.24Q70.29 15.31 71.28 15.31L71.28 15.31L71.28 15.31Q72.18 15.31 72.77 15.26L72.77 15.26L72.77 15.26Q73.36 15.21 73.71 15.07L73.71 15.07L73.71 15.07Q74.06 14.92 74.20 14.67L74.20 14.67L74.20 14.67Q74.34 14.41 74.34 14L74.34 14L75.65 14L75.65 14Q75.65 14.64 75.43 15.08L75.43 15.08L75.43 15.08Q75.21 15.53 74.70 15.81L74.70 15.81L74.70 15.81Q74.18 16.08 73.35 16.21L73.35 16.21L73.35 16.21Q72.51 16.34 71.28 16.34ZM71.28 9.19L71.28 9.19L71.28 9.19Q70.62 9.19 70.11 9.21L70.11 9.21L70.11 9.21Q69.59 9.24 69.20 9.33L69.20 9.33L69.20 9.33Q68.82 9.43 68.54 9.60L68.54 9.60L68.54 9.60Q68.27 9.78 68.10 10.01L68.10 10.01L68.10 10.01Q67.94 10.25 67.86 10.67L67.86 10.67L67.86 10.67Q67.78 11.10 67.78 11.70L67.78 11.70L74.34 11.70L74.34 11.70Q74.34 10.90 74.17 10.45L74.17 10.45L74.17 10.45Q74.00 9.99 73.63 9.70L73.63 9.70L73.63 9.70Q73.26 9.41 72.68 9.30L72.68 9.30L72.68 9.30Q72.10 9.19 71.28 9.19ZM86.59 16.19L85.28 16.19L85.28 11.81L85.28 11.81Q85.28 11.08 85.17 10.58L85.17 10.58L85.17 10.58Q85.06 10.08 84.73 9.77L84.73 9.77L84.73 9.77Q84.40 9.46 83.80 9.32L83.80 9.32L83.80 9.32Q83.20 9.19 82.22 9.19L82.22 9.19L82.22 9.19Q81.15 9.19 80.47 9.34L80.47 9.34L80.47 9.34Q79.79 9.50 79.40 9.79L79.40 9.79L79.40 9.79Q79.01 10.08 78.86 10.48L78.86 10.48L78.86 10.48Q78.72 10.88 78.72 11.38L78.72 11.38L78.72 16.19L77.40 16.19L77.40 8.31L78.72 8.31L78.72 9.63L78.72 9.63Q78.86 9.29 79.13 9.05L79.13 9.05L79.13 9.05Q79.39 8.80 79.73 8.63L79.73 8.63L79.73 8.63Q80.06 8.46 80.45 8.36L80.45 8.36L80.45 8.36Q80.84 8.25 81.23 8.19L81.23 8.19L81.23 8.19Q81.62 8.13 81.99 8.11L81.99 8.11L81.99 8.11Q82.35 8.09 82.65 8.09L82.65 8.09L82.65 8.09Q83.53 8.09 84.16 8.20L84.16 8.20L84.16 8.20Q84.79 8.31 85.23 8.52L85.23 8.52L85.23 8.52Q85.67 8.74 85.94 9.05L85.94 9.05L85.94 9.05Q86.21 9.37 86.35 9.78L86.35 9.78L86.35 9.78Q86.50 10.19 86.55 10.70L86.55 10.70L86.55 10.70Q86.60 11.21 86.60 11.81L86.60 11.81L86.59 16.19ZM94.91 12.69L96.00 12.69L96.00 12.69Q96.00 13.69 95.84 14.37L95.84 14.37L95.84 14.37Q95.68 15.04 95.29 15.44L95.29 15.44L95.29 15.44Q94.90 15.85 94.27 16.02L94.27 16.02L94.27 16.02Q93.65 16.19 92.72 16.19L92.72 16.19L92.72 16.19Q91.83 16.19 91.22 16.05L91.22 16.05L91.22 16.05Q90.61 15.91 90.23 15.59L90.23 15.59L90.23 15.59Q89.86 15.26 89.69 14.71L89.69 14.71L89.69 14.71Q89.53 14.16 89.53 13.34L89.53 13.34L89.53 9.39L87.91 9.39L87.91 8.31L89.53 8.31L89.53 6.16L90.84 6.16L90.84 8.31L95.79 8.31L95.79 9.39L90.84 9.39L90.84 13.34L90.84 13.34Q90.84 14 90.94 14.36L90.94 14.36L90.94 14.36Q91.04 14.71 91.26 14.88L91.26 14.88L91.26 14.88Q91.48 15.04 91.84 15.07L91.84 15.07L91.84 15.07Q92.20 15.09 92.72 15.09L92.72 15.09L92.72 15.09Q93.13 15.09 93.45 15.08L93.45 15.08L93.45 15.08Q93.78 15.07 94.02 14.99L94.02 14.99L94.02 14.99Q94.26 14.92 94.43 14.78L94.43 14.78L94.43 14.78Q94.60 14.63 94.71 14.36L94.71 14.36L94.71 14.36Q94.81 14.10 94.86 13.69L94.86 13.69L94.86 13.69Q94.91 13.28 94.91 12.69L94.91 12.69ZM105.16 16.19L105.16 15.11L105.16 15.11Q105.14 15.19 104.85 15.52L104.85 15.52L104.85 15.52Q104.64 15.76 104.30 15.95L104.30 15.95L104.30 15.95Q103.96 16.14 103.39 16.25L103.39 16.25L103.39 16.25Q102.82 16.35 101.89 16.35L101.89 16.35L101.89 16.35Q100.65 16.35 99.78 16.23L99.78 16.23L99.78 16.23Q98.90 16.10 98.35 15.84L98.35 15.84L98.35 15.84Q97.79 15.57 97.54 15.16L97.54 15.16L97.54 15.16Q97.28 14.75 97.28 14.18L97.28 14.18L97.28 14.18Q97.28 13.59 97.42 13.18L97.42 13.18L97.42 13.18Q97.56 12.76 97.83 12.48L97.83 12.48L97.83 12.48Q98.10 12.20 98.49 12.04L98.49 12.04L98.49 12.04Q98.87 11.89 99.36 11.81L99.36 11.81L99.36 11.81Q99.85 11.72 100.43 11.70L100.43 11.70L100.43 11.70Q101.01 11.68 101.66 11.68L101.66 11.68L101.66 11.68Q102.60 11.68 103.23 11.76L103.23 11.76L103.23 11.76Q103.86 11.84 104.26 11.96L104.26 11.96L104.26 11.96Q104.66 12.08 104.86 12.22L104.86 12.22L104.86 12.22Q105.07 12.35 105.16 12.47L105.16 12.47L105.16 12.47Q105.16 11.70 105.09 11.16L105.09 11.16L105.09 11.16Q105.03 10.62 104.88 10.26L104.88 10.26L104.88 10.26Q104.73 9.90 104.50 9.68L104.50 9.68L104.50 9.68Q104.27 9.47 103.93 9.36L103.93 9.36L103.93 9.36Q103.59 9.25 103.14 9.22L103.14 9.22L103.14 9.22Q102.69 9.19 102.11 9.19L102.11 9.19L102.11 9.19Q101.21 9.19 100.61 9.23L100.61 9.23L100.61 9.23Q100.02 9.28 99.67 9.41L99.67 9.41L99.67 9.41Q99.32 9.54 99.18 9.77L99.18 9.77L99.18 9.77Q99.03 9.99 99.03 10.36L99.03 10.36L97.72 10.36L97.72 10.36Q97.72 9.74 97.94 9.31L97.94 9.31L97.94 9.31Q98.16 8.88 98.68 8.61L98.68 8.61L98.68 8.61Q99.20 8.34 100.04 8.22L100.04 8.22L100.04 8.22Q100.88 8.09 102.11 8.09L102.11 8.09L102.11 8.09Q103.31 8.09 104.15 8.29L104.15 8.29L104.15 8.29Q104.98 8.49 105.50 8.99L105.50 8.99L105.50 8.99Q106.01 9.49 106.24 10.33L106.24 10.33L106.24 10.33Q106.47 11.18 106.47 12.47L106.47 12.47L106.47 16.19L105.16 16.19ZM102.11 15.31L102.11 15.31L102.11 15.31Q102.98 15.31 103.56 15.23L103.56 15.23L103.56 15.23Q104.15 15.15 104.50 14.98L104.50 14.98L104.50 14.98Q104.86 14.82 105.01 14.57L105.01 14.57L105.01 14.57Q105.16 14.33 105.16 14L105.16 14L105.16 14Q105.16 13.67 104.98 13.44L104.98 13.44L104.98 13.44Q104.81 13.21 104.40 13.07L104.40 13.07L104.40 13.07Q104.00 12.93 103.33 12.86L103.33 12.86L103.33 12.86Q102.66 12.80 101.67 12.80L101.67 12.80L101.67 12.80Q100.69 12.80 100.08 12.83L100.08 12.83L100.08 12.83Q99.48 12.87 99.15 12.99L99.15 12.99L99.15 12.99Q98.82 13.11 98.71 13.35L98.71 13.35L98.71 13.35Q98.59 13.59 98.59 14L98.59 14L98.59 14Q98.59 14.41 98.71 14.67L98.71 14.67L98.71 14.67Q98.83 14.92 99.20 15.07L99.20 15.07L99.20 15.07Q99.57 15.21 100.27 15.26L100.27 15.26L100.27 15.26Q100.96 15.31 102.11 15.31ZM108.66 16.19L108.66 5.69L109.97 5.69L109.97 16.19L108.66 16.19Z"></path>
    </g><!----><!---->
</svg>