<?xml version="1.0" standalone="no"?>
<!DOCTYPE svg PUBLIC "-//W3C//DTD SVG 20010904//EN"
 "http://www.w3.org/TR/2001/REC-SVG-20010904/DTD/svg10.dtd">
<svg version="1.0" xmlns="http://www.w3.org/2000/svg"
 width="512.000000pt" height="512.000000pt" viewBox="0 0 512.000000 512.000000"
 preserveAspectRatio="xMidYMid meet">

<g transform="translate(0.000000,512.000000) scale(0.100000,-0.100000)"
fill="#000000" stroke="none">
<path d="M2459 5092 c-99 -52 -129 -126 -129 -321 l0 -93 -59 54 c-94 88 -193
99 -289 34 -90 -60 -124 -188 -75 -281 12 -22 112 -137 222 -255 l201 -215 0
-327 0 -326 -37 -13 c-86 -27 -244 -120 -287 -168 -11 -11 -23 -21 -27 -21
-13 0 -532 301 -551 319 -9 9 -53 138 -98 286 -45 149 -90 286 -100 305 -70
137 -268 156 -368 35 -52 -64 -65 -144 -36 -229 9 -26 14 -50 10 -53 -3 -3
-37 13 -75 36 -127 75 -165 91 -220 91 -146 0 -257 -135 -221 -271 21 -82 51
-113 174 -186 63 -37 113 -70 111 -73 -2 -4 -29 -12 -59 -19 -108 -24 -177
-99 -184 -200 -5 -73 8 -116 53 -168 40 -47 99 -74 164 -74 25 -1 174 29 330
65 l284 66 278 -161 279 -161 -8 -41 c-4 -23 -7 -98 -7 -167 0 -69 3 -144 7
-167 l8 -41 -279 -161 -278 -161 -284 66 c-156 36 -305 66 -330 65 -86 0 -161
-48 -199 -127 -18 -36 -21 -58 -18 -109 7 -107 73 -181 184 -206 30 -7 57 -15
59 -19 2 -3 -49 -37 -113 -75 -98 -59 -121 -78 -146 -118 -88 -144 19 -337
187 -337 59 0 95 14 205 78 51 30 95 52 99 49 3 -3 -2 -27 -11 -53 -54 -159
47 -308 209 -308 105 0 174 51 215 161 36 94 37 127 7 157 -54 54 -107 26
-137 -73 -23 -79 -38 -95 -87 -95 -39 0 -73 31 -73 66 0 11 21 89 47 173 45
149 46 154 29 180 -24 36 -61 49 -95 32 -14 -7 -105 -59 -202 -115 -97 -56
-187 -102 -199 -102 -54 0 -90 51 -70 100 8 20 57 53 193 131 242 138 267 164
215 224 -19 21 -49 31 -169 59 -81 19 -156 39 -168 45 -46 25 -37 106 14 126
26 11 66 4 325 -56 162 -38 308 -69 324 -69 18 0 134 61 345 182 174 100 324
188 335 197 31 26 33 50 14 130 -11 46 -18 114 -18 171 0 57 7 125 18 171 19
80 17 104 -14 130 -48 41 -654 379 -679 379 -15 0 -154 -29 -308 -65 -154 -36
-296 -65 -314 -65 -82 0 -102 109 -26 138 15 6 90 25 165 42 115 27 141 36
158 57 47 60 23 85 -217 222 -136 78 -185 111 -193 131 -20 49 16 100 71 100
12 0 108 -50 213 -111 109 -63 203 -111 219 -111 29 -1 63 24 72 53 4 11 -14
86 -39 168 -25 82 -46 158 -46 169 0 11 8 30 19 43 22 27 83 32 106 8 9 -8 58
-154 110 -324 52 -169 98 -312 102 -316 4 -4 157 -94 338 -198 205 -119 340
-191 357 -191 20 0 49 19 105 70 85 77 197 138 298 164 33 8 65 23 72 33 10
13 13 111 13 417 l-1 401 -145 155 c-334 356 -328 348 -276 400 51 50 64 44
198 -97 105 -109 125 -126 152 -126 18 0 41 8 52 18 19 17 20 30 20 234 0 223
6 273 37 297 42 32 97 9 113 -47 6 -19 10 -131 10 -250 0 -204 1 -217 20 -234
11 -10 34 -18 52 -18 27 0 47 17 152 126 134 141 147 147 198 97 52 -52 58
-44 -276 -400 l-145 -155 -1 -122 c0 -113 2 -124 22 -143 12 -11 33 -20 47
-20 57 1 81 48 81 160 l0 65 201 215 c110 118 210 233 221 255 49 94 16 221
-74 281 -96 65 -195 54 -289 -34 l-59 -54 0 93 c0 196 -30 271 -129 322 -73
36 -131 36 -202 -1z"/>
<path d="M4030 4181 c-69 -22 -114 -59 -143 -116 -8 -16 -52 -151 -97 -300
-45 -148 -89 -277 -98 -286 -19 -18 -538 -319 -551 -319 -4 0 -16 10 -27 21
-43 48 -201 141 -286 168 l-38 13 0 72 c0 83 -14 132 -40 146 -30 16 -68 12
-90 -10 -18 -18 -20 -33 -20 -158 0 -95 4 -144 13 -155 7 -10 39 -25 72 -33
102 -26 216 -89 299 -165 55 -50 84 -69 104 -69 17 0 149 70 357 191 182 105
334 194 338 198 4 4 50 147 102 316 52 170 101 316 110 324 23 24 84 19 106
-8 11 -13 19 -32 19 -43 0 -11 -21 -87 -46 -169 -25 -82 -43 -157 -39 -168 9
-29 43 -54 72 -53 16 0 109 48 218 111 105 61 200 111 213 111 34 0 62 -18 73
-47 20 -54 1 -71 -206 -192 -232 -134 -252 -155 -205 -214 17 -21 43 -30 158
-57 75 -17 150 -36 165 -42 77 -30 56 -138 -27 -138 -19 0 -159 29 -311 65
-153 36 -291 65 -308 65 -20 0 -126 -56 -336 -177 -348 -200 -360 -208 -370
-236 -4 -11 0 -52 11 -96 23 -99 23 -243 0 -342 -11 -44 -15 -85 -11 -96 10
-28 22 -36 370 -236 205 -119 316 -177 335 -177 16 0 162 31 324 69 259 60
299 67 325 56 58 -23 60 -104 2 -130 -17 -8 -94 -28 -169 -45 -115 -27 -141
-36 -158 -57 -47 -59 -27 -80 205 -214 207 -121 226 -138 206 -192 -11 -29
-39 -47 -71 -47 -12 0 -102 46 -199 102 -97 56 -188 108 -202 115 -34 17 -71
4 -95 -32 -17 -26 -16 -31 29 -180 26 -84 47 -162 47 -173 0 -11 -8 -30 -19
-43 -22 -27 -83 -32 -106 -8 -9 8 -58 154 -110 324 -52 169 -98 312 -102 316
-4 4 -156 93 -338 198 -216 125 -340 191 -358 191 -21 0 -44 -15 -85 -53 -100
-95 -197 -149 -318 -181 -33 -8 -64 -23 -71 -33 -10 -13 -13 -111 -13 -417 l1
-401 145 -155 c334 -356 328 -348 276 -400 -51 -50 -64 -44 -198 97 -105 109
-125 126 -152 126 -18 0 -41 -8 -52 -18 -19 -17 -20 -30 -20 -241 0 -130 -4
-234 -10 -250 -29 -76 -118 -71 -140 7 -6 19 -10 131 -10 250 0 204 -1 217
-20 234 -11 10 -34 18 -52 18 -27 0 -47 -17 -152 -126 -134 -141 -147 -147
-198 -97 -52 52 -58 44 276 400 l145 155 1 401 c0 306 -3 404 -13 417 -7 10
-38 25 -71 33 -120 31 -213 84 -318 181 -41 37 -66 53 -85 53 -18 0 -149 -70
-363 -193 l-335 -194 -32 -94 c-37 -111 -39 -139 -14 -170 21 -26 79 -32 105
-10 9 7 25 45 37 85 11 39 28 78 37 87 19 19 538 319 551 319 4 0 16 -10 27
-21 43 -48 201 -141 287 -168 l37 -13 0 -326 0 -327 -201 -215 c-110 -118
-209 -231 -219 -250 -29 -57 -34 -102 -16 -165 34 -114 147 -181 263 -155 43
9 66 23 113 67 l60 55 0 -93 c0 -195 30 -269 129 -321 71 -37 129 -37 202 0
99 50 129 125 129 321 l0 93 59 -54 c94 -88 193 -99 289 -34 90 60 123 187 74
281 -11 22 -111 137 -221 255 l-201 215 0 327 0 326 38 13 c85 27 243 120 286
168 11 11 23 21 27 21 13 0 532 -301 551 -319 9 -9 53 -137 98 -286 45 -148
90 -286 100 -305 70 -137 268 -156 368 -35 52 64 65 144 36 229 -9 26 -14 50
-11 53 3 3 48 -19 99 -48 116 -67 141 -77 201 -78 148 -3 255 139 213 284 -22
73 -65 115 -189 184 -53 30 -94 57 -92 61 2 4 29 12 59 19 108 24 177 99 184
200 5 73 -8 116 -53 168 -40 47 -99 74 -164 74 -25 1 -174 -29 -330 -65 l-283
-66 -279 161 -279 161 8 42 c9 53 9 279 0 332 l-8 42 279 161 279 161 283 -66
c156 -36 305 -66 330 -65 65 0 124 27 164 74 45 52 58 95 53 168 -7 101 -76
176 -184 200 -30 7 -57 15 -59 19 -2 3 48 36 111 73 123 73 153 104 174 186
35 134 -76 272 -217 270 -60 -1 -85 -11 -201 -78 -51 -29 -96 -51 -99 -48 -3
3 2 27 11 53 39 116 -4 233 -106 285 -44 23 -120 32 -158 20z"/>
<path d="M2440 2985 c-247 -70 -383 -343 -291 -585 41 -109 140 -208 251 -252
73 -29 230 -32 307 -5 114 40 230 156 270 270 27 77 24 233 -5 307 -44 111
-143 209 -252 251 -73 28 -205 34 -280 14z m246 -163 c62 -32 97 -65 129 -124
27 -47 30 -63 30 -138 0 -75 -3 -91 -30 -138 -32 -59 -66 -91 -129 -125 -33
-17 -58 -22 -126 -22 -91 0 -133 15 -197 69 -46 39 -85 119 -90 190 -11 139
62 253 194 302 54 20 167 13 219 -14z"/>
</g>
</svg>
