<?xml version="1.0" standalone="no"?>
<!DOCTYPE svg PUBLIC "-//W3C//DTD SVG 20010904//EN"
 "http://www.w3.org/TR/2001/REC-SVG-20010904/DTD/svg10.dtd">
<svg version="1.0" xmlns="http://www.w3.org/2000/svg"
 width="512.000000pt" height="512.000000pt" viewBox="0 0 512.000000 512.000000"
 preserveAspectRatio="xMidYMid meet">

<g transform="translate(0.000000,512.000000) scale(0.100000,-0.100000)"
fill="#000000" stroke="none">
<path d="M682 5109 c-76 -15 -150 -56 -211 -116 -68 -69 -108 -146 -122 -234
-6 -41 -8 -906 -7 -2387 l3 -2324 28 -24 28 -24 1297 0 c1403 0 1368 -1 1487
54 126 57 207 138 306 305 237 401 520 684 932 931 59 35 132 86 161 112 69
61 131 158 164 255 l27 78 3 515 c2 350 0 536 -8 580 -24 139 13 98 -950 1063
-487 488 -919 915 -961 948 -191 151 -395 236 -642 269 -95 12 -1472 12 -1535
-1z m1551 -174 c158 -24 311 -84 461 -182 98 -64 1841 -1801 1883 -1877 l28
-51 3 -495 c3 -552 1 -587 -55 -693 -45 -85 -92 -127 -252 -222 -390 -233
-699 -543 -938 -938 -91 -152 -132 -201 -204 -244 -110 -66 -45 -63 -1411 -63
l-1238 0 2 2293 3 2292 21 45 c29 61 82 109 146 131 49 17 100 18 753 19 567
0 719 -3 798 -15z"/>
<path d="M860 4765 c-60 -19 -119 -71 -150 -131 l-25 -49 0 -857 0 -856 24
-26 24 -26 1742 0 1742 0 20 23 c30 32 36 62 19 94 -24 45 -1624 1635 -1686
1675 -95 61 -200 109 -299 136 l-96 26 -635 3 c-526 2 -643 0 -680 -12z m1378
-183 c172 -52 241 -100 475 -331 l187 -184 0 -539 0 -538 -1025 0 -1025 0 0
764 c0 532 3 773 11 795 22 63 1 61 684 58 608 -3 621 -3 693 -25z m1292
-1147 l445 -445 -453 0 -452 0 0 445 c0 245 3 445 8 445 4 0 207 -200 452
-445z"/>
<path d="M3406 2540 c-126 -49 -191 -193 -147 -324 19 -54 77 -115 136 -142
49 -23 56 -24 360 -24 305 0 311 1 360 24 97 46 147 125 147 233 1 106 -62
197 -159 233 -49 18 -78 20 -351 20 -268 -1 -302 -3 -346 -20z m644 -165 c50
-26 57 -94 14 -132 -25 -23 -29 -23 -308 -23 -267 0 -285 1 -308 20 -14 11
-28 31 -30 44 -7 34 17 85 44 96 13 5 144 9 291 9 221 1 273 -2 297 -14z"/>
</g>
</svg>
