<?xml version="1.0" standalone="no"?>
<!DOCTYPE svg PUBLIC "-//W3C//DTD SVG 20010904//EN"
 "http://www.w3.org/TR/2001/REC-SVG-20010904/DTD/svg10.dtd">
<svg version="1.0" xmlns="http://www.w3.org/2000/svg"
 width="512.000000pt" height="512.000000pt" viewBox="0 0 512.000000 512.000000"
 preserveAspectRatio="xMidYMid meet">

<g transform="translate(0.000000,512.000000) scale(0.100000,-0.100000)"
fill="#000000" stroke="none">
<path d="M212 4907 c-21 -23 -22 -30 -22 -288 0 -335 -17 -309 197 -309 l151
0 4 -101 c3 -92 5 -103 27 -120 22 -18 52 -19 912 -19 l889 0 0 -1870 0 -1870
-140 0 -140 0 0 1035 c0 1022 0 1035 -20 1055 -20 20 -33 20 -680 20 -647 0
-660 0 -680 -20 -20 -20 -20 -33 -20 -620 l0 -600 -60 0 -60 0 0 364 c0 364 0
365 -22 390 -13 13 -82 55 -154 92 -125 64 -132 66 -160 53 -35 -17 -52 -59
-37 -91 7 -15 51 -44 122 -81 l111 -58 0 -383 0 -383 23 -21 c21 -20 34 -22
130 -22 l107 0 0 -365 0 -365 -228 0 c-226 0 -229 0 -250 -23 -28 -30 -28 -68
1 -95 l23 -22 2325 0 2326 0 21 23 c28 30 28 68 -1 95 -23 21 -31 22 -250 22
l-227 0 0 365 0 365 108 0 c165 0 152 -37 152 428 l0 381 111 58 c72 37 115
65 122 81 15 32 -2 74 -37 91 -28 13 -35 11 -160 -53 -72 -37 -141 -79 -153
-92 -23 -25 -23 -26 -23 -390 l0 -364 -60 0 -60 0 0 600 c0 587 0 600 -20 620
-20 20 -33 20 -680 20 -647 0 -660 0 -680 -20 -20 -20 -20 -33 -20 -1055 l0
-1035 -140 0 -140 0 0 1870 0 1870 889 0 c860 0 890 1 912 19 22 17 24 28 27
120 l4 101 152 0 c213 0 196 -27 196 311 0 265 0 266 -23 287 l-23 22 -2325 0
-2326 0 -21 -23z m4578 -287 l0 -170 -2230 0 -2230 0 0 170 0 170 2230 0 2230
0 0 -170z m-350 -360 l0 -50 -1880 0 -1880 0 0 50 0 50 1880 0 1880 0 0 -50z
m-1830 -2060 l0 -1870 -50 0 -50 0 0 1870 0 1870 50 0 50 0 0 -1870z m-660
-885 l0 -985 -560 0 -560 0 0 985 0 985 560 0 560 0 0 -985z m2340 0 l0 -985
-560 0 -560 0 0 985 0 985 560 0 560 0 0 -985z"/>
<path d="M973 2100 c-40 -16 -43 -38 -43 -309 0 -248 1 -262 20 -281 19 -19
33 -20 440 -20 407 0 421 1 440 20 19 19 20 33 20 284 0 245 -1 265 -19 287
l-19 24 -409 2 c-224 1 -418 -2 -430 -7z m737 -300 l0 -170 -320 0 -320 0 0
170 0 170 320 0 320 0 0 -170z"/>
<path d="M1096 868 c-21 -30 -20 -61 3 -89 l19 -24 272 0 272 0 19 24 c23 28
24 59 3 89 -15 22 -17 22 -294 22 -277 0 -279 0 -294 -22z"/>
<path d="M1096 628 c-21 -30 -20 -61 3 -89 l19 -24 272 0 272 0 19 24 c23 28
24 59 3 89 -15 22 -17 22 -294 22 -277 0 -279 0 -294 -22z"/>
<path d="M3313 2100 c-40 -16 -43 -38 -43 -309 0 -248 1 -262 20 -281 19 -19
33 -20 440 -20 407 0 421 1 440 20 19 19 20 33 20 284 0 245 -1 265 -19 287
l-19 24 -409 2 c-224 1 -418 -2 -430 -7z m737 -300 l0 -170 -320 0 -320 0 0
170 0 170 320 0 320 0 0 -170z"/>
<path d="M3436 868 c-21 -30 -20 -61 3 -89 l19 -24 272 0 272 0 19 24 c23 28
24 59 3 89 -15 22 -17 22 -294 22 -277 0 -279 0 -294 -22z"/>
<path d="M3436 628 c-21 -30 -20 -61 3 -89 l19 -24 272 0 272 0 19 24 c23 28
24 59 3 89 -15 22 -17 22 -294 22 -277 0 -279 0 -294 -22z"/>
</g>
</svg>
