<?xml version="1.0" encoding="UTF-8"?>
<!DOCTYPE svg PUBLIC "-//W3C//DTD SVG 1.1//EN" "http://www.w3.org/Graphics/SVG/1.1/DTD/svg11.dtd">
<svg xmlns="http://www.w3.org/2000/svg" version="1.1" width="512px" height="512px" style="shape-rendering:geometricPrecision; text-rendering:geometricPrecision; image-rendering:optimizeQuality; fill-rule:evenodd; clip-rule:evenodd" xmlns:xlink="http://www.w3.org/1999/xlink">
<g><path style="opacity:0.933" fill="#000000" d="M 227.5,-0.5 C 237.833,-0.5 248.167,-0.5 258.5,-0.5C 297.17,6.00778 326.503,26.1744 346.5,60C 359.5,60.3333 372.5,60.6667 385.5,61C 390.599,62.6946 392.432,66.1946 391,71.5C 390.167,73.6667 388.667,75.1667 386.5,76C 375.5,76.3333 364.5,76.6667 353.5,77C 356.997,85.8216 359.163,94.9883 360,104.5C 360.5,129.164 360.667,153.831 360.5,178.5C 369.173,178.334 377.84,178.5 386.5,179C 391.535,182.013 392.702,186.18 390,191.5C 389.097,192.701 387.931,193.535 386.5,194C 377.84,194.5 369.173,194.666 360.5,194.5C 360.5,219.167 360.5,243.833 360.5,268.5C 367.391,267.901 374.058,268.735 380.5,271C 382.359,272.558 383.859,274.391 385,276.5C 386.109,287.787 386.609,299.12 386.5,310.5C 386.609,321.88 386.109,333.213 385,344.5C 383.01,348.49 379.843,350.99 375.5,352C 370.511,352.499 365.511,352.666 360.5,352.5C 360.667,370.503 360.5,388.503 360,406.5C 359.163,416.012 356.997,425.178 353.5,434C 364.5,434.333 375.5,434.667 386.5,435C 391.535,438.013 392.702,442.18 390,447.5C 388.829,448.893 387.329,449.727 385.5,450C 372.5,450.333 359.5,450.667 346.5,451C 326.503,484.826 297.17,504.992 258.5,511.5C 248.167,511.5 237.833,511.5 227.5,511.5C 181.325,503.15 149.492,477.15 132,433.5C 129.719,426.989 128.052,420.322 127,413.5C 125.616,393.197 125.116,372.864 125.5,352.5C 118.609,353.099 111.942,352.265 105.5,350C 101.752,346.67 100.085,342.503 100.5,337.5C 83.7633,337.956 67.0966,337.456 50.5,336C 41.092,330.133 37.7587,321.633 40.5,310.5C 37.7587,299.367 41.092,290.867 50.5,285C 67.0966,283.544 83.7633,283.044 100.5,283.5C 100.009,275.971 103.342,271.138 110.5,269C 115.489,268.501 120.489,268.334 125.5,268.5C 125.333,234.165 125.5,199.832 126,165.5C 128.435,160.776 132.269,159.276 137.5,161C 139.049,162.214 140.215,163.714 141,165.5C 141.5,199.832 141.667,234.165 141.5,268.5C 152.833,268.5 164.167,268.5 175.5,268.5C 175.333,215.166 175.5,161.832 176,108.5C 180.585,80.5905 196.085,61.7572 222.5,52C 264.023,43.1731 292.523,58.3398 308,97.5C 308.882,100.789 309.548,104.123 310,107.5C 310.5,161.166 310.667,214.832 310.5,268.5C 321.833,268.5 333.167,268.5 344.5,268.5C 344.967,211.808 344.467,155.141 343,98.5C 333.932,58.7634 310.099,32.2634 271.5,19C 218.99,7.67201 179.157,25.172 152,71.5C 147.998,80.5075 144.998,89.8408 143,99.5C 142.138,112.565 141.138,125.565 140,138.5C 134.621,142.822 129.954,142.155 126,136.5C 120.673,85.0703 139.173,44.9037 181.5,16C 195.924,7.58397 211.257,2.08397 227.5,-0.5 Z M 242.5,64.5 C 266.644,66.1416 283.144,78.1416 292,100.5C 292.794,103.471 293.461,106.471 294,109.5C 294.5,162.499 294.667,215.499 294.5,268.5C 260.167,268.5 225.833,268.5 191.5,268.5C 191.025,213.801 191.525,159.134 193,104.5C 200.779,80.2087 217.279,66.8754 242.5,64.5 Z M 116.5,284.5 C 201.167,284.5 285.833,284.5 370.5,284.5C 370.5,301.833 370.5,319.167 370.5,336.5C 335.498,336.333 300.498,336.5 265.5,337C 259.858,340.914 259.191,345.58 263.5,351C 273.729,352.451 284.062,352.951 294.5,352.5C 294.667,368.837 294.5,385.17 294,401.5C 289.609,422.887 277.109,437.054 256.5,444C 231.516,449.266 212.016,441.099 198,419.5C 194.994,413.483 192.994,407.149 192,400.5C 191.5,384.503 191.333,368.503 191.5,352.5C 206.504,352.667 221.504,352.5 236.5,352C 241.224,349.565 242.724,345.731 241,340.5C 239.786,338.951 238.286,337.785 236.5,337C 196.501,336.5 156.501,336.333 116.5,336.5C 116.5,319.167 116.5,301.833 116.5,284.5 Z M 57.5,299.5 C 71.8333,299.5 86.1667,299.5 100.5,299.5C 100.5,306.833 100.5,314.167 100.5,321.5C 86.1628,321.667 71.8295,321.5 57.5,321C 56.1833,313.834 56.1833,306.667 57.5,299.5 Z M 141.5,352.5 C 152.833,352.5 164.167,352.5 175.5,352.5C 175.333,369.17 175.5,385.837 176,402.5C 179.204,425.346 190.704,442.513 210.5,454C 232.167,464 253.833,464 275.5,454C 294.841,442.637 306.341,425.804 310,403.5C 310.5,386.503 310.667,369.503 310.5,352.5C 321.833,352.5 333.167,352.5 344.5,352.5C 344.91,372.203 344.41,391.87 343,411.5C 333.775,453.393 308.609,480.559 267.5,493C 222.742,501.707 186.576,487.874 159,451.5C 150.925,439.278 145.592,425.944 143,411.5C 141.605,391.867 141.105,372.2 141.5,352.5 Z"/></g>
<g><path style="opacity:0.938" fill="#000000" d="M 414.5,29.5 C 425.245,29.0712 435.912,29.5712 446.5,31C 460.014,37.853 464.848,48.6863 461,63.5C 454.037,77.7946 442.537,83.4612 426.5,80.5C 426.938,88.9433 426.438,97.2767 425,105.5C 419.58,109.809 414.914,109.142 411,103.5C 410.333,80.5 410.333,57.5 411,34.5C 411.997,32.6769 413.164,31.0103 414.5,29.5 Z M 426.5,44.5 C 432.901,43.7138 438.735,45.0471 444,48.5C 448.178,55.2647 446.678,60.4314 439.5,64C 435.179,64.499 430.846,64.6657 426.5,64.5C 426.5,57.8333 426.5,51.1667 426.5,44.5 Z"/></g>
<g><path style="opacity:0.929" fill="#000000" d="M 416.5,146.5 C 425.559,146.154 434.559,146.654 443.5,148C 458.444,154.057 463.61,164.89 459,180.5C 455.895,187.48 450.729,192.314 443.5,195C 449.356,201.222 454.856,207.722 460,214.5C 461.468,224.037 457.635,227.537 448.5,225C 441.333,217.167 434.167,209.333 427,201.5C 426.93,208.939 426.263,216.272 425,223.5C 419.115,228.028 414.449,227.028 411,220.5C 410.333,197.833 410.333,175.167 411,152.5C 412.021,149.65 413.854,147.65 416.5,146.5 Z M 426.5,162.5 C 432.605,161.651 438.105,162.984 443,166.5C 445.953,172.309 444.453,176.475 438.5,179C 434.514,179.499 430.514,179.666 426.5,179.5C 426.5,173.833 426.5,168.167 426.5,162.5 Z"/></g>
<g><path style="opacity:0.93" fill="#000000" d="M 416.5,271.5 C 458.256,267.759 474.756,286.426 466,327.5C 460.766,340.41 451.266,347.576 437.5,349C 430.5,349.667 423.5,349.667 416.5,349C 414,347.833 412.167,346 411,343.5C 410.333,321.167 410.333,298.833 411,276.5C 412.352,274.251 414.185,272.584 416.5,271.5 Z M 426.5,287.5 C 443.921,285.254 452.588,292.921 452.5,310.5C 451.987,327.345 443.32,335.011 426.5,333.5C 426.5,318.167 426.5,302.833 426.5,287.5 Z"/></g>
<g><path style="opacity:0.932" fill="#000000" d="M 416.5,402.5 C 419.747,402.415 422.581,403.415 425,405.5C 434.276,419.775 443.943,433.775 454,447.5C 454.333,434.167 454.667,420.833 455,407.5C 458.855,401.665 463.522,400.998 469,405.5C 470.137,417.766 470.637,430.1 470.5,442.5C 470.333,453.833 470.167,465.167 470,476.5C 464.114,483.339 458.447,483.006 453,475.5C 444.333,462.833 435.667,450.167 427,437.5C 426.667,450.833 426.333,464.167 426,477.5C 423.089,481.277 419.256,482.444 414.5,481C 413.667,480.167 412.833,479.333 412,478.5C 410.354,454.921 410.021,431.255 411,407.5C 412.352,405.251 414.185,403.584 416.5,402.5 Z"/></g>
</svg>
