<?xml version="1.0" standalone="no"?>
<!DOCTYPE svg PUBLIC "-//W3C//DTD SVG 20010904//EN"
 "http://www.w3.org/TR/2001/REC-SVG-20010904/DTD/svg10.dtd">
<svg version="1.0" xmlns="http://www.w3.org/2000/svg"
 width="512.000000pt" height="512.000000pt" viewBox="0 0 512.000000 512.000000"
 preserveAspectRatio="xMidYMid meet">

<g transform="translate(0.000000,512.000000) scale(0.100000,-0.100000)"
fill="#000000" stroke="none">
<path d="M2168 4944 c-15 -8 -32 -23 -38 -34 -5 -10 -10 -80 -10 -154 l0 -136
-468 0 c-291 0 -491 -4 -528 -11 -142 -26 -286 -129 -352 -255 -66 -127 -63
-6 -60 -1996 l3 -1803 24 -60 c67 -169 205 -290 369 -324 70 -15 2735 -16
2813 -1 172 32 326 171 386 350 17 52 18 137 21 1805 1 1114 -1 1783 -7 1840
-14 121 -65 227 -148 306 -76 73 -133 105 -228 129 -73 19 -111 20 -552 20
l-473 0 0 136 0 136 -34 34 -34 34 -329 0 c-270 -1 -333 -3 -355 -16z m552
-384 l0 -200 -200 0 -200 0 0 200 0 200 200 0 200 0 0 -200z m-600 -248 c5
-98 6 -105 33 -128 l28 -24 335 0 c211 0 342 4 355 10 35 19 49 63 49 160 l0
91 488 -3 c471 -3 489 -4 533 -24 67 -31 114 -78 149 -146 l30 -61 0 -1792 c0
-2001 6 -1841 -72 -1930 -22 -25 -64 -58 -92 -73 l-51 -27 -1385 0 -1385 0
-47 23 c-62 31 -119 87 -149 148 l-24 49 0 1805 0 1805 24 45 c45 87 121 148
208 169 21 5 247 8 503 8 l465 -2 5 -103z"/>
<path d="M2360 3747 c-89 -30 -152 -69 -214 -132 -192 -195 -195 -507 -6 -708
103 -110 231 -167 375 -167 228 0 429 145 496 359 28 90 28 222 0 312 -52 165
-192 301 -356 344 -88 23 -216 19 -295 -8z m270 -196 c170 -65 252 -261 177
-424 -34 -75 -102 -140 -175 -167 -78 -30 -185 -24 -258 13 -60 30 -118 92
-147 156 -30 65 -30 187 0 252 38 85 116 153 203 180 48 14 148 10 200 -10z"/>
<path d="M2439 2539 c-384 -34 -682 -346 -715 -750 -5 -54 -3 -88 6 -109 26
-62 -2 -60 795 -60 l727 0 29 29 c27 27 29 35 29 106 0 203 -88 412 -233 558
-123 123 -294 207 -452 222 -33 3 -71 7 -85 9 -14 1 -59 -1 -101 -5z m224
-214 c211 -55 383 -231 431 -442 l14 -63 -589 0 c-508 0 -589 2 -589 14 0 8
11 50 25 94 62 197 223 349 420 398 70 17 220 17 288 -1z"/>
<path d="M1873 1325 c-13 -9 -28 -33 -34 -54 -9 -31 -8 -43 6 -70 31 -62 24
-61 674 -61 343 0 600 4 614 9 71 27 90 109 38 162 l-29 29 -624 0 c-545 0
-626 -2 -645 -15z"/>
<path d="M1374 882 c-51 -41 -57 -97 -15 -144 l29 -33 1114 -3 c823 -2 1120 1
1141 9 39 16 57 46 57 95 0 35 -5 47 -31 68 l-31 26 -1121 0 c-1048 0 -1123
-2 -1143 -18z"/>
</g>
</svg>
